PathFileType  4	(X/Y/Z) C:\Users\antoi\Documents\MyRepositories\mobilecap\ResultsAnalysis
DataRate	CameraRate	NumFrames	NumMarkers	Units	OrigDataRate	OrigDataStartFrame	OrigNumFrames
100.0	100.0	4	51	mm	100.0	176	280
Frame#	Time	r_knee			r_shank_antsup			r_ankle			r_calc			r_5meta			r_toe			L_knee			L_shank_antsup			L_ankle			L_calc			L_5meta			L_toe			r_sh2			r_sh3			r_sh4			L_sh2			L_sh3			r_thigh1			r_thigh2			r_thigh3			r_thigh4			r_thigh5			L_thigh1			L_thigh2			L_thigh3			L_thigh4			r.ASIS			r.PSIS			L.ASIS			L.PSIS			C7			R_Shoulder			L_Shoulder			R_Sternum			L_Sternum			R_humerus			R_elbow_med			R_elbow_lat			R_forearm			R_wrist_radius			R_wrist_ulna			L_humerus			L_elbow_med			L_elbow_lat			L_forearm			L_wrist_radius			L_wrist_ulna			R_HJC			L_HJC			R_HJC_reg			L_HJC_reg			
		X1	Y1	Z1	X2	Y2	Z2	X3	Y3	Z3	X4	Y4	Z4	X5	Y5	Z5	X6	Y6	Z6	X7	Y7	Z7	X8	Y8	Z8	X9	Y9	Z9	X10	Y10	Z10	X11	Y11	Z11	X12	Y12	Z12	X13	Y13	Z13	X14	Y14	Z14	X15	Y15	Z15	X16	Y16	Z16	X17	Y17	Z17	X18	Y18	Z18	X19	Y19	Z19	X20	Y20	Z20	X21	Y21	Z21	X22	Y22	Z22	X23	Y23	Z23	X24	Y24	Z24	X25	Y25	Z25	X26	Y26	Z26	X27	Y27	Z27	X28	Y28	Z28	X29	Y29	Z29	X30	Y30	Z30	X31	Y31	Z31	X32	Y32	Z32	X33	Y33	Z33	X34	Y34	Z34	X35	Y35	Z35	X36	Y36	Z36	X37	Y37	Z37	X38	Y38	Z38	X39	Y39	Z39	X40	Y40	Z40	X41	Y41	Z41	X42	Y42	Z42	X43	Y43	Z43	X44	Y44	Z44	X45	Y45	Z45	X46	Y46	Z46	X47	Y47	Z47	X48	Y48	Z48	X49	Y49	Z49	X50	Y50	Z50	X51	Y51	Z51	

176	1.75000000	-21.16829	462.95103	-312.70871	-5.58972	339.67363	-342.27455	-239.99560	104.17423	-403.83945	-307.71522	72.01360	-474.79996	-143.01429	34.72651	-336.58951	-80.74450	55.47424	-395.12982	-24.12299	442.72306	-807.50102	-0.33036	331.15033	-776.19613	-270.02262	108.48166	-737.11761	-344.22429	87.27605	-676.55737	-156.94153	35.25662	-776.35557	-114.61967	53.51278	-709.57718	-54.97158	243.74132	-384.08436	-68.92980	351.04705	-301.62782	-115.05607	245.87024	-326.74646	-72.62306	372.34278	-821.82289	-122.29805	261.99230	-819.10754	-193.89737	631.28437	-371.09189	-87.52842	600.52561	-358.68926	-79.46764	565.06099	-302.48281	-224.72796	557.70151	-287.93684	-119.62362	533.48400	-262.76139	-213.13320	614.84742	-766.54738	-82.69931	574.20199	-787.98403	-250.69619	521.18800	-815.16874	-121.17934	477.00346	-830.01474	-326.76290	651.38320	-416.78376	-438.75376	736.86983	-497.11191	-283.15042	624.30915	-673.32490	-433.27875	736.37252	-595.21656	47.69033	957.07251	-515.97705	40.96803	858.99474	-354.14882	86.44759	876.69836	-653.62778	63.54127	783.95606	-490.64333	65.38941	787.77666	-533.34463	18.88851	734.85893	-271.03184	-87.74343	526.22668	-242.68814	-50.17888	563.09625	-171.59241	92.73422	466.82628	-213.35407	173.58552	390.67524	-231.39705	163.68808	370.78089	-194.76198	120.42473	764.72594	-755.12107	79.79017	547.74331	-834.28068	139.10652	597.34335	-870.04905	247.18773	539.35840	-743.78418	337.38930	487.55827	-699.16017	351.38232	467.24384	-740.92727	-405.65590	595.85592	-447.01370	-389.03846	576.15329	-658.84132	-402.79370	595.67136	-456.51446	-393.17199	594.79774	-628.92010	
177	1.76000000	-17.97376	460.88571	-314.59949	-3.18197	338.09954	-342.96279	-239.70442	104.92018	-404.32287	-307.36236	72.62281	-475.06896	-143.05525	35.15233	-336.29163	-80.78822	55.73999	-394.87996	-19.95967	442.04379	-805.52727	2.78436	330.29543	-774.58003	-269.26594	109.85226	-737.39582	-343.47463	88.87690	-677.27943	-156.71132	35.19312	-776.60422	-114.32957	53.42507	-709.65776	-53.43386	242.85855	-384.34480	-66.59100	350.64255	-302.43673	-113.73578	245.94656	-327.28425	-68.79210	372.52594	-820.61760	-119.68482	262.43948	-818.28033	-189.52551	630.81998	-371.20919	-83.47769	599.81054	-359.35667	-75.67076	563.28164	-302.66121	-220.65710	556.76865	-288.58539	-113.17220	528.68342	-271.06879	-208.33862	615.30748	-765.49973	-77.07133	573.05493	-784.11674	-245.91808	521.84312	-814.35053	-116.61764	477.19216	-828.62171	-321.38470	653.55549	-416.66850	-436.59639	737.31053	-496.70074	-278.22341	628.51900	-673.51109	-431.18720	736.89431	-594.99632	46.04919	963.52557	-516.88631	42.10623	866.28988	-355.21588	87.39233	885.26792	-653.35106	64.99732	791.02760	-491.68061	67.39301	795.22224	-533.53299	22.58754	742.75537	-270.11431	-77.48799	532.61173	-238.65895	-41.76142	571.49185	-167.99813	106.41845	485.82968	-214.97013	192.75577	417.58066	-235.26622	185.58397	395.97348	-199.13932	125.95186	775.32642	-755.16831	94.92317	555.85228	-831.35696	152.11177	607.97159	-867.46664	259.93285	559.27590	-736.55902	351.09657	514.90143	-688.33984	367.95459	495.07113	-729.56756	-399.49141	596.64743	-447.01696	-383.03382	577.91754	-658.94490	-396.72568	596.83084	-456.45326	-387.23702	596.10069	-628.87875	
178	1.77000000	-15.02109	458.26583	-315.91546	-0.55261	336.20464	-343.95934	-239.32908	105.60281	-404.78631	-306.94805	73.36764	-475.45330	-143.14124	35.76309	-335.88707	-80.70306	55.78406	-394.82247	-15.87822	441.35315	-803.47857	5.00623	329.73207	-772.98312	-268.61901	111.26420	-737.56455	-343.03865	90.46430	-677.75297	-156.48671	35.17882	-776.74453	-114.05744	53.38841	-709.69451	-51.91574	242.11564	-384.38235	-64.38862	350.39078	-303.51322	-112.55518	246.41467	-327.68198	-65.30067	372.15898	-818.81556	-117.08463	262.55778	-817.12748	-185.00618	631.02396	-371.20107	-79.02630	599.37945	-360.22614	-71.56953	562.50156	-302.93698	-216.59440	556.43874	-289.14749	-104.91773	521.74618	-284.53369	-203.17266	615.99649	-764.07542	-71.73418	572.52889	-780.97889	-240.98374	523.01490	-813.40902	-111.95298	477.52321	-827.03286	-315.49164	658.14320	-416.47744	-434.32416	738.76464	-496.35016	-272.09409	635.76827	-673.54835	-428.95423	738.67412	-594.61385	44.20092	971.62412	-517.75507	43.11587	875.44563	-356.24263	88.02467	895.50661	-652.83873	66.45722	799.91212	-492.79137	69.11118	804.09643	-534.25964	25.91011	753.06642	-268.18242	-68.32603	540.79902	-232.64773	-33.80582	583.01009	-162.79612	119.14105	509.46286	-215.10238	210.27584	449.68407	-238.28677	206.69344	426.10518	-203.31043	131.30882	788.12152	-754.81713	110.61277	567.12846	-829.79771	165.82371	621.98512	-865.77106	272.33103	582.60528	-730.65015	363.84014	545.78958	-678.99136	383.24843	527.06119	-719.77417	-392.03067	598.98446	-447.09254	-375.22772	581.60798	-659.11041	-389.29779	599.52798	-456.40167	-379.87412	599.36941	-628.84483	
179	1.78000000	-11.60767	456.13115	-317.07615	1.86633	334.83700	-344.80129	-238.80447	106.26674	-405.25749	-306.43242	74.28945	-475.92603	-143.15247	36.20982	-335.63674	-80.54038	55.66642	-394.86513	-11.92875	440.64389	-801.59530	6.48939	329.52608	-771.57691	-267.95679	112.52443	-737.57189	-342.67412	92.00142	-678.07689	-156.27931	35.25586	-776.79714	-113.89628	53.21513	-709.68874	-50.32140	241.61174	-384.49720	-62.21097	350.37219	-304.61576	-111.22774	246.88098	-328.22881	-62.13170	371.52424	-816.84608	-114.62605	262.44111	-815.80970	-180.38304	631.77056	-371.22743	-74.54816	599.24580	-360.83819	-67.19844	562.36606	-303.61199	-212.58448	557.08628	-289.52299	-98.68922	518.14519	-292.23489	-197.73087	616.96909	-762.68639	-66.78932	572.57095	-779.17183	-235.98775	524.43709	-812.47738	-107.32977	477.77442	-825.34354	-309.82113	662.01560	-415.98205	-431.89518	741.24426	-496.19728	-266.69863	642.27054	-673.33490	-426.57133	741.55819	-594.31450	42.22125	981.25825	-518.32922	43.72052	886.21384	-357.27905	88.37964	907.62156	-652.00322	67.89543	810.44454	-493.73718	70.39866	814.40183	-535.38394	28.97084	765.77588	-265.40500	-59.62452	551.35684	-224.35036	-26.05100	597.64430	-156.00128	130.62977	537.43186	-213.79229	225.56264	486.28830	-240.49337	225.81998	461.90209	-206.06153	136.70437	803.32219	-754.28108	126.81789	581.72731	-829.42793	179.97538	639.42422	-864.92122	284.24796	608.92498	-726.09017	375.63930	579.59829	-671.26510	397.18169	562.35661	-711.35579	-385.85055	601.79267	-447.21695	-368.76223	585.75025	-659.31729	-382.96267	602.53124	-456.15734	-373.60475	603.08280	-628.61645	
